<svg xmlns="http://www.w3.org/2000/svg" width="2560" height="2560" preserveAspectRatio="xMidYMid meet" version="1.0" viewBox="0 0 1920 1920"><metadata>Created by potrace 1.11, written by Peter Selinger 2001-2013</metadata><g fill="#000" stroke="none"><path d="M7489 15686 c-2 -2 -49 -7 -104 -11 -55 -3 -111 -8 -125 -10 -14 -2 -50 -6 -80 -10 -98 -11 -134 -16 -195 -26 -83 -13 -117 -18 -141 -24 -12 -3 -39 -7 -60 -10 -134 -20 -705 -180 -799 -224 -11 -5 -45 -18 -75 -29 -220 -80 -616 -276 -851 -422 -240 -150 -538 -370 -708 -525 -262 -237 -445 -429 -616 -645 -33 -41 -62 -77 -65 -80 -3 -3 -17 -21 -30 -40 -13 -19 -27 -37 -30 -40 -4 -3 -38 -50 -76 -105 -375 -534 -644 -1121 -798 -1740 -24 -99 -60 -268 -71 -335 -3 -19 -8 -42 -10 -50 -5 -17 -41 -297 -49 -380 -27 -264 -27 -774 -2 -975 2 -16 7 -64 11 -105 3 -41 8 -82 10 -90 2 -8 7 -40 10 -70 4 -30 13 -91 21 -134 7 -44 13 -81 11 -82 -1 -1 -26 -5 -56 -9 -30 -4 -63 -9 -75 -11 -12 -2 -37 -7 -56 -10 -313 -48 -745 -211 -1015 -381 -11 -7 -33 -20 -49 -29 -62 -35 -269 -188 -367 -272 -167 -143 -371 -365 -487 -530 -225 -322 -374 -643 -470 -1012 -24 -90 -55 -250 -67 -345 -3 -22 -8 -56 -11 -75 -9 -60 -12 -521 -4 -595 5 -38 11 -97 15 -130 6 -53 37 -226 51 -280 3 -11 7 -31 10 -45 16 -83 95 -322 148 -449 184 -435 488 -845 846 -1141 41 -34 84 -70 95 -79 159 -132 478 -313 725 -411 158 -63 390 -134 480 -146 19 -3 49 -9 65 -14 17 -5 50 -11 75 -14 25 -4 56 -8 70 -10 38 -7 137 -17 210 -23 36 -2 293 -6 572 -7 l507 -2 14 41 c7 22 66 177 130 345 155 407 446 1176 461 1220 7 19 84 222 171 450 87 228 164 433 172 455 7 22 18 49 22 60 12 27 112 287 115 300 2 6 7 19 11 30 24 62 67 175 184 485 71 190 178 471 236 625 59 154 118 312 132 350 13 39 31 84 38 100 7 17 23 57 34 90 12 33 26 69 31 80 5 11 118 308 250 660 l242 640 811 0 c707 -1 812 -3 810 -15 -2 -8 -35 -98 -74 -200 -39 -102 -93 -246 -120 -320 -28 -74 -54 -144 -59 -155 -11 -23 -145 -378 -167 -440 -7 -22 -18 -49 -23 -60 -5 -11 -57 -148 -115 -305 -59 -157 -111 -294 -116 -305 -8 -20 -52 -136 -54 -145 -1 -3 -6 -16 -12 -30 -6 -14 -40 -104 -76 -200 -36 -96 -134 -355 -218 -575 -83 -220 -164 -434 -179 -475 -15 -41 -73 -194 -129 -340 -56 -146 -103 -269 -105 -275 -2 -5 -6 -17 -9 -25 -20 -51 -329 -867 -331 -875 -2 -5 -6 -17 -9 -25 -18 -44 -114 -300 -148 -395 -22 -60 -44 -119 -49 -130 -39 -83 -238 -630 -231 -635 11 -6 3468 -7 3474 0 2 3 13 30 25 60 11 30 32 87 47 125 14 39 41 111 60 160 18 50 75 198 125 330 110 289 320 845 367 970 18 50 37 99 42 110 5 11 33 83 62 160 28 77 80 214 114 305 127 334 264 698 310 820 26 69 51 134 56 145 5 11 18 47 29 80 12 33 26 69 31 80 5 11 70 182 144 380 75 198 138 367 142 375 3 8 7 17 7 20 2 6 25 69 37 95 4 11 22 58 39 105 17 47 35 94 40 105 5 11 37 94 70 185 34 91 65 174 70 185 10 21 189 493 194 510 2 6 6 17 9 25 4 8 35 92 70 185 35 94 128 339 206 545 78 206 201 530 272 720 72 190 135 354 139 365 11 24 98 254 146 385 19 52 38 104 44 115 5 11 39 101 76 200 36 99 72 194 79 210 7 17 22 55 33 85 10 30 59 159 107 285 48 127 100 264 115 305 24 64 55 147 113 295 7 17 12 32 13 35 0 3 4 12 7 20 4 8 18 44 31 80 l24 65 -73 142 c-63 120 -109 203 -178 318 -36 59 -198 300 -245 365 -61 82 -244 312 -277 346 -11 12 -37 41 -59 65 -263 297 -634 618 -975 843 -171 113 -238 156 -244 156 -3 0 -36 19 -73 42 -163 99 -491 252 -744 348 -250 95 -608 196 -825 235 -157 28 -205 36 -235 40 -46 6 -107 14 -145 20 -16 2 -64 7 -105 11 -41 3 -91 8 -110 11 -43 6 -706 14 -711 9z m2783 -6255 c4 0 -2 -25 -13 -53 -12 -29 -33 -87 -49 -128 -23 -64 -116 -310 -153 -405 -7 -16 -12 -32 -13 -35 0 -3 -6 -18 -13 -35 -7 -16 -55 -144 -108 -285 -53 -140 -100 -266 -106 -280 -6 -14 -11 -27 -11 -30 -1 -3 -18 -48 -38 -100 -101 -263 -190 -496 -192 -505 -2 -5 -6 -17 -9 -25 -3 -8 -25 -64 -47 -125 -22 -60 -45 -119 -50 -130 -4 -11 -20 -51 -34 -90 -14 -38 -31 -83 -37 -100 -7 -16 -13 -34 -15 -40 -1 -5 -66 -176 -144 -380 -78 -203 -149 -392 -158 -420 l-17 -50 -817 -3 -818 -2 9 22 c5 13 30 79 55 148 26 69 51 134 56 145 9 19 202 530 259 685 41 110 368 975 396 1045 13 33 47 123 75 200 28 77 57 154 65 170 7 17 77 201 155 410 79 209 148 385 155 390 8 7 291 10 811 9 439 -1 802 -2 806 -3z" transform="translate(0.000000,1920.000000) scale(0.100000,-0.100000)"/><path d="M14487 12804 c-1 -1 -65 -5 -142 -8 -77 -3 -165 -8 -195 -11 -30 -4 -70 -7 -88 -9 -17 -1 -36 -6 -41 -12 -4 -5 -52 -126 -105 -269 -131 -349 -164 -434 -181 -473 -8 -18 -15 -37 -15 -43 0 -6 -6 -25 -14 -42 -16 -38 -20 -47 -147 -387 -55 -146 -104 -274 -109 -285 -7 -16 -156 -409 -265 -700 -13 -33 -55 -144 -94 -247 -39 -104 -103 -272 -142 -375 -39 -104 -81 -215 -94 -248 -20 -53 -96 -254 -357 -945 -39 -102 -87 -230 -108 -285 -104 -269 -131 -341 -135 -357 -2 -10 -10 -32 -18 -50 -16 -35 -28 -67 -33 -83 -1 -5 -62 -165 -134 -355 -72 -190 -143 -376 -157 -415 -14 -38 -31 -83 -38 -100 -13 -30 -66 -170 -112 -295 -13 -36 -28 -74 -32 -85 -5 -11 -51 -130 -101 -265 -90 -240 -179 -475 -225 -595 -13 -33 -46 -121 -74 -195 -28 -74 -56 -148 -62 -165 -7 -16 -13 -32 -14 -35 -1 -3 -5 -12 -8 -20 -8 -19 -51 -133 -52 -140 -1 -3 -5 -12 -8 -20 -6 -13 -138 -362 -548 -1448 -65 -172 -121 -317 -124 -322 -3 -4 1 -10 8 -12 19 -7 4233 -1 4312 6 39 3 102 8 140 11 39 3 86 7 105 10 19 3 53 7 75 10 54 6 126 17 150 21 11 3 36 7 55 10 227 34 602 137 845 232 28 11 77 30 110 42 33 13 70 30 83 38 12 8 22 12 22 9 0 -8 330 157 447 224 122 69 359 225 449 293 32 25 72 56 89 68 37 29 207 170 260 218 174 155 493 505 610 670 22 30 42 57 45 60 4 3 40 55 80 115 40 61 86 129 102 152 15 23 28 46 28 52 0 6 5 11 10 11 6 0 10 4 10 10 0 5 23 49 51 97 239 413 440 967 524 1448 20 109 35 210 40 260 4 33 8 71 11 85 19 115 26 665 11 880 -5 63 -10 117 -12 120 -2 3 -6 35 -9 72 -4 37 -9 77 -11 90 -3 13 -7 39 -10 58 -3 19 -7 49 -10 65 -6 31 -8 41 -20 110 -23 133 -135 542 -175 640 -4 11 -35 91 -69 178 -301 772 -840 1480 -1511 1986 -52 39 -100 75 -105 79 -31 25 -208 140 -318 206 -408 245 -898 443 -1342 541 -43 10 -177 37 -203 41 -15 2 -49 9 -77 14 -27 5 -72 12 -98 15 -27 4 -56 8 -65 10 -10 1 -53 6 -96 10 -43 4 -88 9 -100 11 -30 6 -464 22 -469 18z" transform="translate(0.000000,1920.000000) scale(0.100000,-0.100000)"/></g></svg>